<?xml version="1.0" encoding="UTF-8" standalone="no"?>
<!-- Created with Inkscape (http://www.inkscape.org/) -->

<svg
   width="512"
   height="512"
   viewBox="0 0 135.46666 135.46667"
   version="1.1"
   id="svg2854"
   xmlns="http://www.w3.org/2000/svg"
   xmlns:svg="http://www.w3.org/2000/svg">
  <defs
     id="defs2851" />
  <g
     id="layer1">
    <path
       style="fill:#000000;stroke-width:0.385061"
       d="m 34.08183,118.01062 c -0.411311,-0.34654 -1.558072,-1.30603 -2.548342,-2.13221 -10.840084,-9.04408 -16.005852,-24.714911 -13.021915,-39.503213 0.741934,-3.676942 0.890043,-4.022447 5.272068,-12.295904 2.479804,-4.681963 8.677948,-15.609549 13.773667,-24.28349 8.815394,-15.005586 9.375204,-15.879777 11.53693,-18.016171 2.799588,-2.766756 8.538304,-6.694274 11.805249,-8.079357 9.505891,-4.0302126 20.01553,-4.5936186 29.168745,-1.563702 4.037116,1.336371 10.582098,5.172873 13.972518,8.190382 12.33223,10.9756 16.62658,29.226292 10.48912,44.578124 -0.80487,2.013206 -4.98539,9.443455 -13.87432,24.659484 0,0 -7.476124,15.208427 -18.027408,25.905687 -10.551262,10.69725 -28.647991,13.38331 -43.888921,5.25537 -2.150262,-1.14666 -4.246059,-2.36845 -4.657349,-2.71496 z m 15.676958,-1.35421 c 10.683778,2.34961 21.719964,-0.70013 29.467264,-8.14295 l 2.296337,-2.20608 13.188339,-22.842899 C 106.93156,62.297403 107.94591,60.436579 108.53736,58.099974 110.07538,52.023724 109.61264,45.22318 107.24732,39.141075 102.90759,27.98209 93.46835,20.384933 82.093088,18.895666 71.550393,17.51541 59.878235,21.769462 53.812175,29.202978 c -0.872341,1.068957 -3.339633,4.978242 -5.482889,8.687275 l -3.896814,6.743654 0.507277,1.00572 c 0.431322,0.855145 1.432501,1.513695 6.686642,4.398462 7.01413,3.85104 8.880481,4.411611 13.470443,4.045827 3.116946,-0.248368 4.995171,-1.04609 10.46409,-4.444215 5.118133,-3.180143 8.814798,-4.406886 12.487774,-4.144053 3.63053,0.259771 5.93336,1.083852 10.53345,3.769373 4.741012,2.767804 5.733992,3.822873 5.631882,5.983962 -0.0723,1.530727 -0.65037,2.596787 -12.958666,23.899319 -11.364701,19.669675 -13.117417,22.550638 -14.872783,24.448488 -3.705438,4.00626 -7.930972,6.51349 -13.397487,7.94944 -7.318361,1.92238 -13.832302,1.30827 -20.498277,-1.9325 -3.279847,-1.59459 -7.387638,-4.81241 -9.708732,-7.60532 -1.107192,-1.33224 -1.482611,-1.60234 -1.974232,-1.4204 -0.877149,0.32463 -0.419571,1.65838 1.477864,4.30778 2.982109,4.16392 5.053663,5.938 10.139007,8.683 3.516218,1.89801 5.216072,2.61094 7.338064,3.07762 z m 7.392466,-69.438556 c -0.186754,-1.254314 -0.04417,-1.580774 2.285674,-5.23867 1.366614,-2.145558 3.241737,-4.649851 4.166961,-5.565091 5.644702,-5.583888 13.333099,-8.070267 20.090745,-6.497176 6.841059,1.592506 13.041771,7.992258 9.331238,9.630743 -0.763966,0.337308 -0.972128,0.242247 -2.619983,-1.196808 -4.96349,-4.334506 -13.346576,-4.350551 -19.699485,-0.0376 -2.853231,1.936964 -3.058064,2.161295 -5.820588,6.373824 -2.583803,3.939979 -2.985438,4.403023 -4.114571,4.74368 -1.760708,0.531191 -3.35683,-0.444492 -3.61997,-2.212842 z m -16.141418,21.12381 c 1.554354,-0.205039 2.379626,-1.10789 4.722909,-5.166537 l 2.342276,-4.056942 -0.479213,-1.788403 c -0.596401,-2.225785 -1.65564,-2.897628 -3.847711,-2.440439 -1.560456,0.325453 -1.731925,0.479027 -3.336943,2.988724 -2.55393,3.993417 -3.451809,6.380173 -2.977425,7.914803 0.438986,1.420236 2.265129,2.721763 3.576107,2.548794 z m 12.276449,5.649345 c 1.468619,0.06821 3.175499,-0.903343 3.949286,-2.247727 1.18027,-2.050105 0.157786,-5.380781 -2.039216,-6.644484 -1.770467,-1.018807 -5.205655,-0.05712 -6.24813,1.748422 -0.669891,1.16028 -0.696003,3.561643 -0.05013,4.616403 0.791168,1.292159 2.808627,2.454123 4.388498,2.526976 z"
       id="path2308" />
  </g>
</svg>
